# xmcd
#
# Track frame offsets: 
#        150
#        14705
#        27946
#        42582
#        57124
#        77136
#        93680
#        104732
#        122064
#        136073
#        148716
#        161871
#
# Disc length: 2374 seconds
#
# Revision: 0
# Processed by: cddbd v1.5.1PL2 Copyright (c) Steve Scherf et al.
# Submitted via: ExactAudioCopy v0.95b1
#
DISCID=ae09440c
DTITLE=Bobby Osborne - Try A Little Kindness
DYEAR=2006
DGENRE=Bluegrass
TTITLE0=The Hard Times
TTITLE1=The Fields Have Turned Brown
TTITLE2=It's Gonna Be Rainin' Til I Die
TTITLE3=West Virginia My Home
TTITLE4=Sunday Morning Coming Down
TTITLE5=Mansions For Me
TTITLE6=Try A Little Kindness
TTITLE7=Rocky Top X-Press
TTITLE8=Long Black Train
TTITLE9=Certain
TTITLE10=We're Living In The Last Days Now
TTITLE11=Father And Daughter
EXTD=
EXTT0=
EXTT1=
EXTT2=
EXTT3=
EXTT4=
EXTT5=
EXTT6=
EXTT7=
EXTT8=
EXTT9=
EXTT10=
EXTT11=
PLAYORDER=
